<?xml version="1.0" encoding="UTF-8" standalone="no"?>
<!DOCTYPE svg PUBLIC "-//W3C//DTD SVG 1.1//EN"
 "http://www.w3.org/Graphics/SVG/1.1/DTD/svg11.dtd">
<!-- Generated by graphviz version 2.40.1 (20161225.0304)
 -->
<!-- Title: callgraph Pages: 1 -->
<svg width="904pt" height="962pt"
 viewBox="0.00 0.00 904.00 962.00" xmlns="http://www.w3.org/2000/svg" xmlns:xlink="http://www.w3.org/1999/xlink">
<g id="graph0" class="graph" transform="scale(1 1) rotate(0) translate(4 958)">
<title>callgraph</title>
<polygon fill="#ffffff" stroke="transparent" points="-4,4 -4,-958 900,-958 900,4 -4,4"/>
<!-- Main -->
<g id="node1" class="node">
<title>Main</title>
<polygon fill="none" stroke="#000000" points="54,-495 0,-495 0,-459 54,-459 54,-495"/>
<text text-anchor="middle" x="27" y="-473.3" font-family="Times,serif" font-size="14.00" fill="#000000">Main</text>
</g>
<!-- Offline run :: bump%run_offline -->
<g id="node2" class="node">
<title>Offline run :: bump%run_offline</title>
<polygon fill="none" stroke="#000000" points="287,-495 90,-495 90,-459 287,-459 287,-495"/>
<text text-anchor="middle" x="188.5" y="-473.3" font-family="Times,serif" font-size="14.00" fill="#000000">Offline run :: bump%run_offline</text>
</g>
<!-- Main&#45;&gt;Offline run :: bump%run_offline -->
<g id="edge1" class="edge">
<title>Main&#45;&gt;Offline run :: bump%run_offline</title>
<path fill="none" stroke="#000000" d="M54.0315,-477C61.6149,-477 70.3553,-477 79.6644,-477"/>
<polygon fill="#000000" stroke="#000000" points="79.9613,-480.5001 89.9613,-477 79.9613,-473.5001 79.9613,-480.5001"/>
</g>
<!-- Initialize MPL :: mpl%init -->
<g id="node3" class="node">
<title>Initialize MPL :: mpl%init</title>
<polygon fill="none" stroke="#000000" points="526,-954 362,-954 362,-918 526,-918 526,-954"/>
<text text-anchor="middle" x="444" y="-932.3" font-family="Times,serif" font-size="14.00" fill="#000000">Initialize MPL :: mpl%init</text>
</g>
<!-- Offline run :: bump%run_offline&#45;&gt;Initialize MPL :: mpl%init -->
<g id="edge2" class="edge">
<title>Offline run :: bump%run_offline&#45;&gt;Initialize MPL :: mpl%init</title>
<path fill="none" stroke="#000000" d="M191.6832,-495.212C205.0611,-569.7074 259.007,-850.0674 323,-909 331.3882,-916.7249 341.4869,-922.4087 352.2288,-926.5656"/>
<polygon fill="#000000" stroke="#000000" points="351.2129,-929.9171 361.8075,-929.8384 353.4763,-923.2931 351.2129,-929.9171"/>
</g>
<!-- Initialize timer :: timer%start -->
<g id="node4" class="node">
<title>Initialize timer :: timer%start</title>
<polygon fill="none" stroke="#000000" points="532.5,-900 355.5,-900 355.5,-864 532.5,-864 532.5,-900"/>
<text text-anchor="middle" x="444" y="-878.3" font-family="Times,serif" font-size="14.00" fill="#000000">Initialize timer :: timer%start</text>
</g>
<!-- Offline run :: bump%run_offline&#45;&gt;Initialize timer :: timer%start -->
<g id="edge3" class="edge">
<title>Offline run :: bump%run_offline&#45;&gt;Initialize timer :: timer%start</title>
<path fill="none" stroke="#000000" d="M189.1133,-495.346C192.2027,-556.5991 210.8302,-755.7739 323,-855 329.735,-860.9578 337.4942,-865.6901 345.7641,-869.4383"/>
<polygon fill="#000000" stroke="#000000" points="344.7066,-872.7853 355.2905,-873.2648 347.3157,-866.2897 344.7066,-872.7853"/>
</g>
<!-- Initialize namelist :: nam%init -->
<g id="node5" class="node">
<title>Initialize namelist :: nam%init</title>
<polygon fill="none" stroke="#000000" points="536,-846 352,-846 352,-810 536,-810 536,-846"/>
<text text-anchor="middle" x="444" y="-824.3" font-family="Times,serif" font-size="14.00" fill="#000000">Initialize namelist :: nam%init</text>
</g>
<!-- Offline run :: bump%run_offline&#45;&gt;Initialize namelist :: nam%init -->
<g id="edge4" class="edge">
<title>Offline run :: bump%run_offline&#45;&gt;Initialize namelist :: nam%init</title>
<path fill="none" stroke="#000000" d="M190.2906,-495.0659C196.7696,-550.2641 224.1157,-717.9756 323,-801 328.969,-806.0116 335.6703,-810.1457 342.7773,-813.5501"/>
<polygon fill="#000000" stroke="#000000" points="341.4013,-816.7682 351.9719,-817.4834 344.1544,-810.3324 341.4013,-816.7682"/>
</g>
<!-- Read namelist :: nam%read -->
<g id="node6" class="node">
<title>Read namelist :: nam%read</title>
<polygon fill="none" stroke="#000000" points="528.5,-792 359.5,-792 359.5,-756 528.5,-756 528.5,-792"/>
<text text-anchor="middle" x="444" y="-770.3" font-family="Times,serif" font-size="14.00" fill="#000000">Read namelist :: nam%read</text>
</g>
<!-- Offline run :: bump%run_offline&#45;&gt;Read namelist :: nam%read -->
<g id="edge5" class="edge">
<title>Offline run :: bump%run_offline&#45;&gt;Read namelist :: nam%read</title>
<path fill="none" stroke="#000000" d="M191.9392,-495.1892C202.2115,-544.2364 237.4279,-680.0248 323,-747 330.945,-753.2184 340.0373,-758.0648 349.5904,-761.8331"/>
<polygon fill="#000000" stroke="#000000" points="348.6768,-765.2223 359.2716,-765.253 351.0084,-758.622 348.6768,-765.2223"/>
</g>
<!-- Broadcast namelist :: nam%bcast -->
<g id="node7" class="node">
<title>Broadcast namelist :: nam%bcast</title>
<polygon fill="none" stroke="#000000" points="544,-738 344,-738 344,-702 544,-702 544,-738"/>
<text text-anchor="middle" x="444" y="-716.3" font-family="Times,serif" font-size="14.00" fill="#000000">Broadcast namelist :: nam%bcast</text>
</g>
<!-- Offline run :: bump%run_offline&#45;&gt;Broadcast namelist :: nam%bcast -->
<g id="edge6" class="edge">
<title>Offline run :: bump%run_offline&#45;&gt;Broadcast namelist :: nam%bcast</title>
<path fill="none" stroke="#000000" d="M194.3186,-495.2009C208.7528,-537.2593 250.3831,-641.5186 323,-693 326.7052,-695.6268 330.6216,-698.0039 334.6894,-700.1548"/>
<polygon fill="#000000" stroke="#000000" points="333.2806,-703.3606 343.8128,-704.511 336.2968,-697.0437 333.2806,-703.3606"/>
</g>
<!-- Initialize listing :: mpl%init_listing -->
<g id="node8" class="node">
<title>Initialize listing :: mpl%init_listing</title>
<polygon fill="none" stroke="#000000" points="548.5,-684 339.5,-684 339.5,-648 548.5,-648 548.5,-684"/>
<text text-anchor="middle" x="444" y="-662.3" font-family="Times,serif" font-size="14.00" fill="#000000">Initialize listing :: mpl%init_listing</text>
</g>
<!-- Offline run :: bump%run_offline&#45;&gt;Initialize listing :: mpl%init_listing -->
<g id="edge7" class="edge">
<title>Offline run :: bump%run_offline&#45;&gt;Initialize listing :: mpl%init_listing</title>
<path fill="none" stroke="#000000" d="M198.1389,-495.1827C217.1647,-529.1914 262.9619,-602.2965 323,-639 325.6685,-640.6313 328.4239,-642.1645 331.2478,-643.6053"/>
<polygon fill="#000000" stroke="#000000" points="329.9333,-646.854 340.4764,-647.9 332.8867,-640.5075 329.9333,-646.854"/>
</g>
<!-- Generic setup :: bump%setup_generic -->
<g id="node9" class="node">
<title>Generic setup :: bump%setup_generic</title>
<polygon fill="none" stroke="#000000" points="556.5,-630 331.5,-630 331.5,-594 556.5,-594 556.5,-630"/>
<text text-anchor="middle" x="444" y="-608.3" font-family="Times,serif" font-size="14.00" fill="#000000">Generic setup :: bump%setup_generic</text>
</g>
<!-- Offline run :: bump%run_offline&#45;&gt;Generic setup :: bump%setup_generic -->
<g id="edge8" class="edge">
<title>Offline run :: bump%run_offline&#45;&gt;Generic setup :: bump%setup_generic</title>
<path fill="none" stroke="#000000" d="M205.7778,-495.3595C229.7376,-519.6826 275.4959,-562.1672 323,-585 327.0935,-586.9675 331.3343,-588.7942 335.6703,-590.4898"/>
<polygon fill="#000000" stroke="#000000" points="334.7004,-593.8614 345.2944,-593.9962 337.0967,-587.2843 334.7004,-593.8614"/>
</g>
<!-- Get coordinates from file :: model_coord -->
<g id="node10" class="node">
<title>Get coordinates from file :: model_coord</title>
<polygon fill="none" stroke="#000000" points="565,-576 323,-576 323,-540 565,-540 565,-576"/>
<text text-anchor="middle" x="444" y="-554.3" font-family="Times,serif" font-size="14.00" fill="#000000">Get coordinates from file :: model_coord</text>
</g>
<!-- Offline run :: bump%run_offline&#45;&gt;Get coordinates from file :: model_coord -->
<g id="edge9" class="edge">
<title>Offline run :: bump%run_offline&#45;&gt;Get coordinates from file :: model_coord</title>
<path fill="none" stroke="#000000" d="M228.4936,-495.0449C254.9257,-506.473 290.5547,-520.9398 323,-531 330.2997,-533.2634 337.9023,-535.4183 345.5833,-537.4514"/>
<polygon fill="#000000" stroke="#000000" points="344.7809,-540.8589 355.3376,-539.9604 346.5247,-534.0795 344.7809,-540.8589"/>
</g>
<!-- Initialize geometry :: geom%init -->
<g id="node11" class="node">
<title>Initialize geometry :: geom%init</title>
<polygon fill="none" stroke="#000000" points="542,-522 346,-522 346,-486 542,-486 542,-522"/>
<text text-anchor="middle" x="444" y="-500.3" font-family="Times,serif" font-size="14.00" fill="#000000">Initialize geometry :: geom%init</text>
</g>
<!-- Offline run :: bump%run_offline&#45;&gt;Initialize geometry :: geom%init -->
<g id="edge10" class="edge">
<title>Offline run :: bump%run_offline&#45;&gt;Initialize geometry :: geom%init</title>
<path fill="none" stroke="#000000" d="M287.283,-487.4389C303.2146,-489.1225 319.7808,-490.8731 335.9179,-492.5784"/>
<polygon fill="#000000" stroke="#000000" points="335.5882,-496.063 345.9007,-493.6333 336.3239,-489.1017 335.5882,-496.063"/>
</g>
<!-- If fields regridding required -->
<g id="node12" class="node">
<title>If fields regridding required</title>
<polygon fill="none" stroke="#000000" points="528,-468 360,-468 360,-432 528,-432 528,-468"/>
<text text-anchor="middle" x="444" y="-446.3" font-family="Times,serif" font-size="14.00" fill="#000000">If fields regridding required</text>
</g>
<!-- Offline run :: bump%run_offline&#45;&gt;If fields regridding required -->
<g id="edge11" class="edge">
<title>Offline run :: bump%run_offline&#45;&gt;If fields regridding required</title>
<path fill="none" stroke="#000000" d="M287.283,-466.5611C307.705,-464.403 329.1695,-462.1347 349.4366,-459.993"/>
<polygon fill="#000000" stroke="#000000" points="350.0189,-463.451 359.5957,-458.9194 349.2832,-456.4898 350.0189,-463.451"/>
</g>
<!-- Initialize block parameters :: bpar%alloc -->
<g id="node14" class="node">
<title>Initialize block parameters :: bpar%alloc</title>
<polygon fill="none" stroke="#000000" points="563.5,-414 324.5,-414 324.5,-378 563.5,-378 563.5,-414"/>
<text text-anchor="middle" x="444" y="-392.3" font-family="Times,serif" font-size="14.00" fill="#000000">Initialize block parameters :: bpar%alloc</text>
</g>
<!-- Offline run :: bump%run_offline&#45;&gt;Initialize block parameters :: bpar%alloc -->
<g id="edge13" class="edge">
<title>Offline run :: bump%run_offline&#45;&gt;Initialize block parameters :: bpar%alloc</title>
<path fill="none" stroke="#000000" d="M228.4936,-458.9551C254.9257,-447.527 290.5547,-433.0602 323,-423 330.2997,-420.7366 337.9023,-418.5817 345.5833,-416.5486"/>
<polygon fill="#000000" stroke="#000000" points="346.5247,-419.9205 355.3376,-414.0396 344.7809,-413.1411 346.5247,-419.9205"/>
</g>
<!-- If ensemble 1 required -->
<g id="node15" class="node">
<title>If ensemble 1 required</title>
<polygon fill="none" stroke="#000000" points="514,-360 374,-360 374,-324 514,-324 514,-360"/>
<text text-anchor="middle" x="444" y="-338.3" font-family="Times,serif" font-size="14.00" fill="#000000">If ensemble 1 required</text>
</g>
<!-- Offline run :: bump%run_offline&#45;&gt;If ensemble 1 required -->
<g id="edge14" class="edge">
<title>Offline run :: bump%run_offline&#45;&gt;If ensemble 1 required</title>
<path fill="none" stroke="#000000" d="M205.7778,-458.6405C229.7376,-434.3174 275.4959,-391.8328 323,-369 335.6443,-362.9225 349.6937,-358.1895 363.6132,-354.5104"/>
<polygon fill="#000000" stroke="#000000" points="364.8373,-357.8131 373.7037,-352.0134 363.1558,-351.018 364.8373,-357.8131"/>
</g>
<!-- If ensemble 2 required -->
<g id="node17" class="node">
<title>If ensemble 2 required</title>
<polygon fill="none" stroke="#000000" points="514,-306 374,-306 374,-270 514,-270 514,-306"/>
<text text-anchor="middle" x="444" y="-284.3" font-family="Times,serif" font-size="14.00" fill="#000000">If ensemble 2 required</text>
</g>
<!-- Offline run :: bump%run_offline&#45;&gt;If ensemble 2 required -->
<g id="edge16" class="edge">
<title>Offline run :: bump%run_offline&#45;&gt;If ensemble 2 required</title>
<path fill="none" stroke="#000000" d="M198.1389,-458.8173C217.1647,-424.8086 262.9619,-351.7035 323,-315 335.3841,-307.4291 349.6403,-301.9734 363.9228,-298.0438"/>
<polygon fill="#000000" stroke="#000000" points="364.9489,-301.3947 373.7923,-295.5598 363.2404,-294.6064 364.9489,-301.3947"/>
</g>
<!-- If new observation operator required -->
<g id="node19" class="node">
<title>If new observation operator required</title>
<polygon fill="none" stroke="#000000" points="552,-252 336,-252 336,-216 552,-216 552,-252"/>
<text text-anchor="middle" x="444" y="-230.3" font-family="Times,serif" font-size="14.00" fill="#000000">If new observation operator required</text>
</g>
<!-- Offline run :: bump%run_offline&#45;&gt;If new observation operator required -->
<g id="edge18" class="edge">
<title>Offline run :: bump%run_offline&#45;&gt;If new observation operator required</title>
<path fill="none" stroke="#000000" d="M194.3186,-458.7991C208.7528,-416.7407 250.3831,-312.4814 323,-261 324.926,-259.6346 326.909,-258.3366 328.9408,-257.1028"/>
<polygon fill="#000000" stroke="#000000" points="331.0277,-259.9516 338.1347,-252.0941 327.6788,-253.8047 331.0277,-259.9516"/>
</g>
<!-- Run drivers :: bump%run_drivers -->
<g id="node21" class="node">
<title>Run drivers :: bump%run_drivers</title>
<polygon fill="none" stroke="#000000" points="544.5,-198 343.5,-198 343.5,-162 544.5,-162 544.5,-198"/>
<text text-anchor="middle" x="444" y="-176.3" font-family="Times,serif" font-size="14.00" fill="#000000">Run drivers :: bump%run_drivers</text>
</g>
<!-- Offline run :: bump%run_offline&#45;&gt;Run drivers :: bump%run_drivers -->
<g id="edge20" class="edge">
<title>Offline run :: bump%run_offline&#45;&gt;Run drivers :: bump%run_drivers</title>
<path fill="none" stroke="#000000" d="M191.9392,-458.8108C202.2115,-409.7636 237.4279,-273.9752 323,-207 326.5766,-204.2007 330.3857,-201.6794 334.3646,-199.4094"/>
<polygon fill="#000000" stroke="#000000" points="336.0111,-202.4986 343.3223,-194.8307 332.8251,-196.2656 336.0111,-202.4986"/>
</g>
<!-- Execution stats :: timer%display -->
<g id="node22" class="node">
<title>Execution stats :: timer%display</title>
<polygon fill="none" stroke="#000000" points="541,-144 347,-144 347,-108 541,-108 541,-144"/>
<text text-anchor="middle" x="444" y="-122.3" font-family="Times,serif" font-size="14.00" fill="#000000">Execution stats :: timer%display</text>
</g>
<!-- Offline run :: bump%run_offline&#45;&gt;Execution stats :: timer%display -->
<g id="edge21" class="edge">
<title>Offline run :: bump%run_offline&#45;&gt;Execution stats :: timer%display</title>
<path fill="none" stroke="#000000" d="M190.2906,-458.9341C196.7696,-403.7359 224.1157,-236.0244 323,-153 327.5408,-149.1875 332.5054,-145.8829 337.75,-143.0209"/>
<polygon fill="#000000" stroke="#000000" points="339.354,-146.1329 346.8153,-138.611 336.2918,-139.8382 339.354,-146.1329"/>
</g>
<!-- Close listings -->
<g id="node23" class="node">
<title>Close listings</title>
<polygon fill="none" stroke="#000000" points="489,-90 399,-90 399,-54 489,-54 489,-90"/>
<text text-anchor="middle" x="444" y="-68.3" font-family="Times,serif" font-size="14.00" fill="#000000">Close listings</text>
</g>
<!-- Offline run :: bump%run_offline&#45;&gt;Close listings -->
<g id="edge22" class="edge">
<title>Offline run :: bump%run_offline&#45;&gt;Close listings</title>
<path fill="none" stroke="#000000" d="M189.1133,-458.654C192.2027,-397.4009 210.8302,-198.2261 323,-99 340.8945,-83.1704 366.0195,-75.992 388.7406,-72.9385"/>
<polygon fill="#000000" stroke="#000000" points="389.4203,-76.3848 398.9763,-71.8096 388.6529,-69.427 389.4203,-76.3848"/>
</g>
<!-- Finalize MPL :: mpl%final -->
<g id="node24" class="node">
<title>Finalize MPL :: mpl%final</title>
<polygon fill="none" stroke="#000000" points="527,-36 361,-36 361,0 527,0 527,-36"/>
<text text-anchor="middle" x="444" y="-14.3" font-family="Times,serif" font-size="14.00" fill="#000000">Finalize MPL :: mpl%final</text>
</g>
<!-- Offline run :: bump%run_offline&#45;&gt;Finalize MPL :: mpl%final -->
<g id="edge23" class="edge">
<title>Offline run :: bump%run_offline&#45;&gt;Finalize MPL :: mpl%final</title>
<path fill="none" stroke="#000000" d="M191.6832,-458.788C205.0611,-384.2926 259.007,-103.9326 323,-45 331.1216,-37.5206 340.8468,-31.9546 351.2068,-27.8353"/>
<polygon fill="#000000" stroke="#000000" points="352.5935,-31.0581 360.8717,-24.4458 350.2769,-24.4525 352.5935,-31.0581"/>
</g>
<!-- Initialize fields regridding :: io%grid_init -->
<g id="node13" class="node">
<title>Initialize fields regridding :: io%grid_init</title>
<polygon fill="none" stroke="#000000" points="869.5,-468 627.5,-468 627.5,-432 869.5,-432 869.5,-468"/>
<text text-anchor="middle" x="748.5" y="-446.3" font-family="Times,serif" font-size="14.00" fill="#000000">Initialize fields regridding :: io%grid_init</text>
</g>
<!-- If fields regridding required&#45;&gt;Initialize fields regridding :: io%grid_init -->
<g id="edge12" class="edge">
<title>If fields regridding required&#45;&gt;Initialize fields regridding :: io%grid_init</title>
<path fill="none" stroke="#000000" d="M528.012,-450C555.6104,-450 586.9806,-450 617.225,-450"/>
<polygon fill="#000000" stroke="#000000" points="617.4316,-453.5001 627.4316,-450 617.4316,-446.5001 617.4316,-453.5001"/>
</g>
<!-- Load ensemble 1 :: ens1%load -->
<g id="node16" class="node">
<title>Load ensemble 1 :: ens1%load</title>
<polygon fill="none" stroke="#000000" points="841,-360 656,-360 656,-324 841,-324 841,-360"/>
<text text-anchor="middle" x="748.5" y="-338.3" font-family="Times,serif" font-size="14.00" fill="#000000">Load ensemble 1 :: ens1%load</text>
</g>
<!-- If ensemble 1 required&#45;&gt;Load ensemble 1 :: ens1%load -->
<g id="edge15" class="edge">
<title>If ensemble 1 required&#45;&gt;Load ensemble 1 :: ens1%load</title>
<path fill="none" stroke="#000000" d="M514.2408,-342C553.1839,-342 602.3302,-342 645.5394,-342"/>
<polygon fill="#000000" stroke="#000000" points="645.8088,-345.5001 655.8087,-342 645.8087,-338.5001 645.8088,-345.5001"/>
</g>
<!-- Load ensemble 2 :: ens2%load -->
<g id="node18" class="node">
<title>Load ensemble 2 :: ens2%load</title>
<polygon fill="none" stroke="#000000" points="841,-306 656,-306 656,-270 841,-270 841,-306"/>
<text text-anchor="middle" x="748.5" y="-284.3" font-family="Times,serif" font-size="14.00" fill="#000000">Load ensemble 2 :: ens2%load</text>
</g>
<!-- If ensemble 2 required&#45;&gt;Load ensemble 2 :: ens2%load -->
<g id="edge17" class="edge">
<title>If ensemble 2 required&#45;&gt;Load ensemble 2 :: ens2%load</title>
<path fill="none" stroke="#000000" d="M514.2408,-288C553.1839,-288 602.3302,-288 645.5394,-288"/>
<polygon fill="#000000" stroke="#000000" points="645.8088,-291.5001 655.8087,-288 645.8087,-284.5001 645.8088,-291.5001"/>
</g>
<!-- Generate observations locations :: obsop%generate -->
<g id="node20" class="node">
<title>Generate observations locations :: obsop%generate</title>
<polygon fill="none" stroke="#000000" points="896,-252 601,-252 601,-216 896,-216 896,-252"/>
<text text-anchor="middle" x="748.5" y="-230.3" font-family="Times,serif" font-size="14.00" fill="#000000">Generate observations locations :: obsop%generate</text>
</g>
<!-- If new observation operator required&#45;&gt;Generate observations locations :: obsop%generate -->
<g id="edge19" class="edge">
<title>If new observation operator required&#45;&gt;Generate observations locations :: obsop%generate</title>
<path fill="none" stroke="#000000" d="M552.2127,-234C564.8129,-234 577.8535,-234 590.9464,-234"/>
<polygon fill="#000000" stroke="#000000" points="590.9625,-237.5001 600.9624,-234 590.9624,-230.5001 590.9625,-237.5001"/>
</g>
</g>
</svg>
